HIERARCHY
ROOT SpineBase
{
  OFFSET 0.000000 0.000000 0.000000
  CHANNELS 6 Xposition Yposition Zposition Zrotation Xrotation Yrotation
  JOINT SpineMid
  {
    OFFSET 0.000000 30.510733 0.000000
    CHANNELS 3 Zrotation Xrotation Yrotation
    JOINT SpineShoulder
    {
      OFFSET -0.014772 22.655848 -0.608325
      CHANNELS 3 Zrotation Xrotation Yrotation
      JOINT Neck
      {
        OFFSET -0.069139 7.481183 -0.499715
        CHANNELS 3 Zrotation Xrotation Yrotation
        JOINT Head
        {
          OFFSET 3.201209 12.461927 -1.786099
          CHANNELS 3 Zrotation Xrotation Yrotation
          End Site
          {
            OFFSET 0 0 0
          }
        }
      }
      JOINT ShoulderLeft
      {
        OFFSET -15.675563 -2.068450 -4.316023
        CHANNELS 3 Zrotation Xrotation Yrotation
        JOINT ElbowLeft
        {
          OFFSET -5.472636 -24.892877 -0.606231
          CHANNELS 3 Zrotation Xrotation Yrotation
          JOINT WristLeft
          {
            OFFSET 0.758177 -20.889888 -5.486141
            CHANNELS 3 Zrotation Xrotation Yrotation
            JOINT HandLeft
            {
              OFFSET 1.999848 -4.116940 -1.631551
              CHANNELS 3 Zrotation Xrotation Yrotation
              JOINT HandTipLeft
              {
                OFFSET 0.607668 -7.255731 0.012971
                CHANNELS 3 Zrotation Xrotation Yrotation
                End Site
                {
                  OFFSET 0 0 0
                }
              }
              JOINT ThumbLeft
              {
                OFFSET -3.553988 -1.148792 -1.598923
                CHANNELS 3 Zrotation Xrotation Yrotation
                End Site
                {
                  OFFSET 0 0 0
                }
              }
            }
          }
        }
      }
      JOINT ShoulderRight
      {
        OFFSET 15.716026 -4.074868 2.595621
        CHANNELS 3 Zrotation Xrotation Yrotation
        JOINT ElbowRight
        {
          OFFSET 2.355159 -27.232164 4.313645
          CHANNELS 3 Zrotation Xrotation Yrotation
          JOINT WristRight
          {
            OFFSET 0.705896 -21.079779 -4.314286
            CHANNELS 3 Zrotation Xrotation Yrotation
            JOINT HandRight
            {
              OFFSET -2.704419 2.330880 -2.583546
              CHANNELS 3 Zrotation Xrotation Yrotation
              JOINT HandTipRight
              {
                OFFSET -1.089742 -8.237288 -2.123488
                CHANNELS 3 Zrotation Xrotation Yrotation
                End Site
                {
                  OFFSET 0 0 0
                }
              }
              JOINT ThumbRight
              {
                OFFSET -1.046699 -1.010882 -3.574326
                CHANNELS 3 Zrotation Xrotation Yrotation
                End Site
                {
                  OFFSET 0 0 0
                }
              }
            }
          }
        }
      }
    }
  }
  JOINT HipLeft
  {
    OFFSET -6.496354 1.205143 -4.362504
    CHANNELS 3 Zrotation Xrotation Yrotation
    JOINT KneeLeft
    {
      OFFSET -8.592307 -28.481068 0.415827
      CHANNELS 3 Zrotation Xrotation Yrotation
      JOINT AnkleLeft
      {
        OFFSET -3.032622 -32.925083 2.742667
        CHANNELS 3 Zrotation Xrotation Yrotation
        JOINT FootLeft
        {
          OFFSET -0.470605 -5.818217 -10.655959
          CHANNELS 3 Zrotation Xrotation Yrotation
          End Site
          {
            OFFSET 0 0 0
          }
        }
      }
    }
  }
  JOINT HipRight
  {
    OFFSET 5.330226 0.082683 -2.720552
    CHANNELS 3 Zrotation Xrotation Yrotation
    JOINT KneeRight
    {
      OFFSET 2.368118 -28.878721 6.437999
      CHANNELS 3 Zrotation Xrotation Yrotation
      JOINT AnkleRight
      {
        OFFSET 0.651296 -33.673952 7.245175
        CHANNELS 3 Zrotation Xrotation Yrotation
        JOINT FootRight
        {
          OFFSET 3.835248 -6.589145 -4.585814
          CHANNELS 3 Zrotation Xrotation Yrotation
          End Site
          {
            OFFSET 0 0 0
          }
        }
      }
    }
  }
}
MOTION
Frames: 14
Frame Time: 0.033333
66.896835 66.735870 392.007064 4.705266 2.843664 -4.138824 0.535708 -0.374062 4.194892 -0.238626 0.132057 0.203963 -11.391227 8.227444 -3.834742 0.000000 0.000000 0.000000 -12.074738 16.725431 -3.603777 12.419953 -26.474417 5.892494 -8.387411 -21.755465 -13.642925 2.464638 36.262493 12.787411 0.000000 0.000000 0.000000 0.000000 0.000000 0.000000 3.077084 2.855959 1.259220 -6.408643 2.323451 -2.134141 81.534628 -39.221865 45.968945 -74.199905 35.170032 29.495507 0.000000 0.000000 0.000000 0.000000 0.000000 0.000000 -7.161458 -1.259072 3.133861 2.045373 -3.055723 0.732223 -7.205558 -6.470928 16.109711 0.000000 0.000000 0.000000 -3.065798 -1.353166 4.440732 -3.076090 -4.937738 -0.976454 10.213144 4.688957 -5.266547 0.000000 0.000000 0.000000
67.773674 65.034242 391.238052 6.881071 3.802286 -0.922032 0.902233 -0.273849 0.954073 -0.249018 0.197300 0.306424 -11.712755 8.787089 -4.423684 0.000000 0.000000 0.000000 -29.487215 44.511668 -2.794923 47.099647 -47.046705 31.443229 -12.593300 -27.315621 -16.041652 6.591266 44.667276 12.336364 0.000000 0.000000 0.000000 0.000000 0.000000 0.000000 4.645908 1.321383 1.838918 -10.260402 4.419817 -2.899046 87.858322 -41.024858 50.813782 -77.518407 36.142824 33.610926 0.000000 0.000000 0.000000 0.000000 0.000000 0.000000 -10.882737 -1.740506 -0.443807 2.712565 -3.729392 0.745797 -5.779857 -7.357316 15.494507 0.000000 0.000000 0.000000 -5.230927 -3.183178 0.974890 -4.101678 -5.083741 -1.157720 12.147998 4.627721 -6.616267 0.000000 0.000000 0.000000
68.675486 63.420925 390.387835 9.300831 4.651191 1.971822 1.340456 -0.715682 -1.942548 -0.299742 0.252225 0.411084 -10.689902 10.226675 -4.932983 0.000000 0.000000 0.000000 -96.986430 76.091971 47.977777 106.149567 -37.733177 82.622057 -25.279668 -38.519311 -18.988578 26.894037 62.514774 -1.941063 0.000000 0.000000 0.000000 0.000000 0.000000 0.000000 5.569499 0.834321 2.322438 -13.465805 6.064831 -3.692595 89.818416 -39.441122 53.871112 -80.531827 38.144313 33.867092 0.000000 0.000000 0.000000 0.000000 0.000000 0.000000 -14.691213 -2.044242 -3.651942 2.909447 -4.186143 0.624767 -3.318364 -11.081652 14.083497 0.000000 0.000000 0.000000 -8.105330 -4.933971 -2.331599 -4.961978 -4.965485 -1.250936 14.775868 5.353632 -8.013295 0.000000 0.000000 0.000000
69.483762 62.095395 389.545358 11.553004 5.554341 4.569090 1.452759 -0.467487 -4.663632 -0.251503 0.275198 0.512240 -6.226489 6.549686 -3.826005 0.000000 0.000000 0.000000 -169.521724 69.322648 110.854980 108.448363 -10.948433 88.139805 -37.844591 -46.077078 -14.760170 61.193165 59.514832 -30.407808 0.000000 0.000000 0.000000 0.000000 0.000000 0.000000 7.260653 -0.484340 3.140369 -17.376352 8.344275 -4.420139 91.395124 -37.718672 56.730645 -78.583647 37.937656 30.685812 0.000000 0.000000 0.000000 0.000000 0.000000 0.000000 -17.923619 -2.096438 -6.570212 2.370843 -4.936541 0.470618 -2.551542 -13.680414 16.822748 0.000000 0.000000 0.000000 -11.379638 -6.703096 -5.535832 -5.093912 -4.270042 -1.105794 15.843776 6.753335 -8.032648 0.000000 0.000000 0.000000
70.080175 61.132666 388.804216 13.100905 6.450222 6.301871 1.290937 0.152532 -6.616600 -0.384773 0.424863 0.539418 2.478420 -0.188135 -0.262186 0.000000 0.000000 0.000000 179.230047 63.996270 116.994632 91.144909 22.788875 85.858539 -67.118374 -67.395714 -27.130478 105.636984 57.270827 -73.442819 0.000000 0.000000 0.000000 0.000000 0.000000 0.000000 10.522769 -3.199397 4.578994 -22.195190 11.725438 -4.725183 93.081880 -35.436628 59.377959 -74.425137 39.025052 24.677928 0.000000 0.000000 0.000000 0.000000 0.000000 0.000000 -19.858389 -2.337231 -8.578095 1.154345 -5.892003 0.279842 0.795856 -11.253980 11.925038 0.000000 0.000000 0.000000 -13.857160 -8.400746 -7.836635 -5.278695 -3.487888 -0.958641 15.967842 9.752631 -6.551677 0.000000 0.000000 0.000000
70.549862 60.947087 388.290187 14.390689 7.397597 5.640453 1.180466 0.873969 -6.217874 0.087235 0.519254 0.642450 7.732400 -8.217317 4.558247 0.000000 0.000000 0.000000 173.873728 63.232409 119.796725 73.069241 52.218991 94.653528 -88.537788 -66.652273 -26.526349 102.969184 54.471489 -71.497178 0.000000 0.000000 0.000000 0.000000 0.000000 0.000000 11.880620 -3.908478 5.547246 -25.192615 13.056335 -5.354418 95.999063 -35.796953 62.218647 -74.219841 39.919932 24.892597 0.000000 0.000000 0.000000 0.000000 0.000000 0.000000 -20.728678 -3.428794 -8.323984 -0.571366 -6.798099 0.100230 0.689714 -10.127473 14.944461 0.000000 0.000000 0.000000 -15.348457 -9.305475 -7.604730 -5.893935 -4.238951 -1.141960 14.292328 13.260762 -3.357661 0.000000 0.000000 0.000000
70.870006 61.528878 388.033468 14.839182 8.267905 4.360100 0.824809 1.592943 -5.192237 0.257174 0.716101 0.659450 13.570172 -14.090984 9.396363 0.000000 0.000000 0.000000 172.170529 66.702171 123.566230 53.341795 67.488045 108.194679 -97.861171 -56.528624 -20.746197 97.307489 48.839605 -59.823884 0.000000 0.000000 0.000000 0.000000 0.000000 0.000000 13.105226 -4.094844 6.292764 -25.749226 13.927447 -6.199466 99.974724 -34.568495 66.750633 -76.385467 42.399712 25.590671 0.000000 0.000000 0.000000 0.000000 0.000000 0.000000 -20.057684 -4.503169 -7.427108 -2.767759 -8.175603 -0.015131 2.207631 -9.765847 14.163958 0.000000 0.000000 0.000000 -15.399408 -9.632464 -6.480135 -6.897928 -5.433093 -1.544103 15.433945 13.502795 -3.718279 0.000000 0.000000 0.000000
71.285366 62.042006 387.728218 15.214126 9.919039 1.950190 0.536141 2.267406 -3.129539 0.207975 0.663985 0.687141 19.000218 -19.713139 14.716443 0.000000 0.000000 0.000000 -173.428847 74.965264 110.993169 71.053869 83.409892 93.499905 -68.012909 -37.150172 2.684601 50.926862 42.888832 -21.288251 0.000000 0.000000 0.000000 0.000000 0.000000 0.000000 15.251036 -4.231358 7.456245 -25.554389 12.697274 -7.756720 100.832526 -39.785820 67.595113 -73.875283 44.782859 28.615478 0.000000 0.000000 0.000000 0.000000 0.000000 0.000000 -19.752939 -6.921075 -5.680168 -4.123128 -8.676478 -0.154305 3.148688 -12.059545 14.705932 0.000000 0.000000 0.000000 -15.978959 -11.186058 -4.762471 -7.178503 -6.361806 -1.781013 17.161415 13.556057 -4.611976 0.000000 0.000000 0.000000
71.805752 62.509380 387.716769 15.635865 11.510626 -2.704201 0.216775 2.390394 1.251992 0.060395 0.600246 0.695361 21.347638 -24.330146 18.526681 0.000000 0.000000 0.000000 -149.036900 78.640327 86.427080 -157.436519 81.185136 -29.949477 -63.521067 -29.234677 6.390731 46.540726 42.800657 -19.902787 0.000000 0.000000 0.000000 0.000000 0.000000 0.000000 16.390277 -4.081851 8.192041 -25.459817 12.503823 -8.775900 100.351422 -47.032090 67.312317 -69.261677 46.453899 31.539372 0.000000 0.000000 0.000000 0.000000 0.000000 0.000000 -19.794484 -9.968756 -1.905068 -4.321194 -8.793068 -0.216258 2.236074 -8.365791 16.491188 0.000000 0.000000 0.000000 -15.483309 -12.640637 -0.581684 -8.122207 -7.903670 -2.326175 20.440058 12.859024 -6.947385 0.000000 0.000000 0.000000
72.250267 62.985338 387.864799 15.870550 12.959241 -9.064865 -0.182485 2.083210 7.412603 -0.026478 0.404533 0.715415 28.402563 -29.621996 26.083609 0.000000 0.000000 0.000000 -116.857186 77.939433 53.354266 -141.441382 61.405843 -22.131965 -52.256363 -12.355107 5.214498 20.642445 60.280257 -25.870209 0.000000 0.000000 0.000000 0.000000 0.000000 0.000000 16.659377 -3.731195 8.441642 -25.139391 13.739097 -9.310315 106.197376 -53.457419 71.586608 -76.031475 49.803943 43.147081 0.000000 0.000000 0.000000 0.000000 0.000000 0.000000 -18.988952 -13.438000 3.614667 -4.457060 -8.776932 -0.272594 2.114832 -9.025103 17.940653 0.000000 0.000000 0.000000 -13.614074 -13.869021 5.738244 -9.811174 -9.785837 -3.179903 23.586077 14.075129 -8.211714 0.000000 0.000000 0.000000
72.596527 63.407189 388.108697 16.040722 14.166967 -16.606306 -0.264809 1.784441 14.823860 -0.145456 0.255827 0.727703 26.949488 -32.636252 26.962413 0.000000 0.000000 0.000000 -88.272365 72.631564 23.988562 -134.528320 50.452780 -31.652315 -124.147421 67.920643 21.249950 34.352159 -0.075164 21.455032 0.000000 0.000000 0.000000 0.000000 0.000000 0.000000 15.904588 -3.840698 8.401128 -24.401552 16.133426 -9.429633 118.255400 -59.139336 80.726041 -91.473938 49.050941 62.443874 0.000000 0.000000 0.000000 0.000000 0.000000 0.000000 -17.296621 -17.000786 10.544254 -4.561896 -8.515567 -0.335500 0.827600 -3.976404 19.554742 0.000000 0.000000 0.000000 -10.922187 -14.530892 13.635580 -11.817205 -11.792610 -4.217766 21.675331 14.531834 -6.001145 0.000000 0.000000 0.000000
72.803757 63.737840 388.356673 16.180778 15.223117 -24.735944 -0.057029 1.302579 22.904471 -0.170676 0.107573 0.760143 16.152102 -31.871729 19.421797 0.000000 0.000000 0.000000 -76.573546 65.866067 11.394230 -133.105830 48.853331 -60.648533 135.337245 36.195696 47.786646 11.848932 21.346717 -51.844658 0.000000 0.000000 0.000000 0.000000 0.000000 0.000000 15.764696 -4.259679 8.550037 -23.662711 18.615571 -9.733984 126.030487 -62.661486 87.766460 -96.349630 47.478276 70.849130 0.000000 0.000000 0.000000 0.000000 0.000000 0.000000 -14.744442 -20.500154 18.420949 -4.480898 -7.849151 -0.400006 -0.069616 -0.957133 20.559031 0.000000 0.000000 0.000000 -7.774048 -14.678801 22.420132 -14.142050 -13.517951 -5.363253 21.406924 13.137347 -5.970585 0.000000 0.000000 0.000000
72.932853 64.006597 388.594499 16.240558 15.998855 -32.202025 0.341387 0.545529 30.400847 -0.359445 -0.095243 0.751700 -1.325782 -24.576684 6.192269 0.000000 0.000000 0.000000 -72.219411 59.687615 6.486138 -117.895562 60.691243 -134.907390 -156.227001 62.501010 -36.129158 19.978969 6.874892 -48.638643 0.000000 0.000000 0.000000 0.000000 0.000000 0.000000 15.072012 -4.409358 8.244557 -22.301231 21.380337 -9.719759 134.873726 -63.384383 95.730074 -106.112626 45.069829 80.449798 0.000000 0.000000 0.000000 0.000000 0.000000 0.000000 -11.690659 -23.287633 26.091130 -4.390682 -6.911082 -0.477743 -0.402586 -2.262027 21.831528 0.000000 0.000000 0.000000 -5.003752 -14.259824 30.565008 -16.072826 -14.825614 -6.344485 18.722381 11.306846 -4.394289 0.000000 0.000000 0.000000
72.714407 63.895726 388.628138 18.294778 15.974598 -39.436107 0.002812 0.346042 37.338423 -0.617165 -0.243886 0.787242 -20.148360 -15.550867 -4.617731 0.000000 0.000000 0.000000 -70.783190 53.919281 2.932147 -82.598357 56.941999 140.806324 -89.521626 4.496732 -63.305845 6.898219 1.591412 -65.525358 0.000000 0.000000 0.000000 0.000000 0.000000 0.000000 18.991769 -7.287966 10.399310 -27.396201 27.744474 -9.831800 142.204215 -63.555367 101.558518 -107.687850 45.017638 83.576835 0.000000 0.000000 0.000000 0.000000 0.000000 0.000000 -9.951043 -26.235498 33.424947 -4.549765 -5.554205 -0.616900 -0.406828 -1.205297 21.382861 0.000000 0.000000 0.000000 -3.795409 -14.295518 38.162093 -18.175717 -15.183644 -7.109301 17.102852 10.866422 -3.117559 0.000000 0.000000 0.000000
